<svg xmlns="http://www.w3.org/2000/svg" viewBox="0 0 465.014 621.271">
  <defs>
    <style>
      .cls-1 {
        fill-rule: evenodd;
      }

      .cls-2 {
        font-size: 24px;
      }

      .cls-2, .cls-3 {
        font-family: AvenirLTStd-Light, Avenir LT Std;
        font-weight: 300;
      }

      .cls-3 {
        font-size: 25px;
      }
    </style>
  </defs>
  <g id="Group_3" data-name="Group 3" transform="translate(-249 -311.007)">
    <path id="Path_1" data-name="Path 1" class="cls-1" d="M31.3,348.534h0Zm5.844,5.844V374H40.9a11.841,11.841,0,0,0,7.1-2.922,10.07,10.07,0,0,0,2.922-7.1,11.841,11.841,0,0,0-2.922-7.1,10.071,10.071,0,0,0-7.1-2.922H37.144Zm0-5.844H40.9a14.471,14.471,0,0,1,10.853,4.592,15.157,15.157,0,0,1,4.592,10.853,14.471,14.471,0,0,1-4.592,10.853A15.158,15.158,0,0,1,40.9,379.423H31.717V348.534h5.426ZM187,354.377h11.27v-5.426h-16.7V379.84h16.7V374H187v-7.1h8.348v-5.426H187v-7.1Zm0,7.1v0Zm154.446-7.931a11.84,11.84,0,0,0-4.174-3.757,9.181,9.181,0,0,0-5.844-.835,9.521,9.521,0,0,0-5.009,2.5,12.937,12.937,0,0,0-2.5,5.426,7.527,7.527,0,0,0,.835,4.174,6.491,6.491,0,0,0,2.5,3.339,8.732,8.732,0,0,0,2.5,1.67c.835.417,1.67.417,2.5.835.417,0,1.252.417,1.67.417s.835.417,1.252.835c.835.417.835.835,1.252,1.252s.417.835.417,1.67a3.188,3.188,0,0,1-.835,2.087,9.125,9.125,0,0,1-2.087,1.252,7.1,7.1,0,0,1-2.922-.417,3.259,3.259,0,0,1-1.67-1.67c0-.417-.417-.417-.417-.835a1.293,1.293,0,0,0-.417-.835l-5.426.835c0,.835.417,1.252.417,1.67.417.417.417,1.252.835,1.67a7.587,7.587,0,0,0,4.592,4.174,10.944,10.944,0,0,0,6.261.835,8.729,8.729,0,0,0,5.426-2.922,7.348,7.348,0,0,0,2.5-5.427c0-1.67,0-2.922-.835-4.174a7.425,7.425,0,0,0-2.922-3.339,8.732,8.732,0,0,0-2.5-1.67c-.835-.417-1.67-.417-2.5-.835-.417,0-1.252-.417-1.67-.417s-.835-.417-1.252-.835-.835-.835-.835-1.252a1.533,1.533,0,0,1-.417-1.252,2.169,2.169,0,0,1,.835-1.67,3.165,3.165,0,0,1,1.67-.835,5.294,5.294,0,0,1,2.5.417,3.259,3.259,0,0,1,1.67,1.67Zm0,0-5.009,2.5,5.009-2.5Zm128.983-5.009h0Zm5.844,0v30.889h-5.426V348.534ZM331.843,515.085h10.018a7.33,7.33,0,0,1-1.67,2.087,10.688,10.688,0,0,1-7.931,3.339,10.858,10.858,0,0,1,0-21.706,11.115,11.115,0,0,1,5.009,1.252,7.366,7.366,0,0,1,3.757,3.339l4.592-3.339a17,17,0,0,0-5.844-5.009,14.3,14.3,0,0,0-7.514-1.67,15.713,15.713,0,0,0-16.279,16.279,17.138,17.138,0,0,0,4.592,11.688,16.4,16.4,0,0,0,11.688,4.592,16.718,16.718,0,0,0,12.105-5.009,16.4,16.4,0,0,0,4.592-11.688H331.843v5.844Zm0,0v0Zm146.932-20.871h0Zm5.844,0V525.1l-5.009-5.009-11.688-12.105V525.1H462.5V494.213l5.009,5.009,11.688,12.105V494.213ZM40.9,207.445h0Zm5.844,0v30.889H41.318V207.445Zm151.941,5.009a11.84,11.84,0,0,0-4.174-3.757,9.18,9.18,0,0,0-5.844-.835,9.522,9.522,0,0,0-5.009,2.5,12.937,12.937,0,0,0-2.5,5.427,7.526,7.526,0,0,0,.835,4.174,6.491,6.491,0,0,0,2.5,3.339,8.733,8.733,0,0,0,2.5,1.67c.835.417,1.67.417,2.5.835.417,0,1.252.417,1.67.417s.835.417,1.252.835c.835.417.835.835,1.252,1.252s.417.835.417,1.67a3.189,3.189,0,0,1-.835,2.087,9.126,9.126,0,0,1-2.087,1.252,7.1,7.1,0,0,1-2.922-.417,3.259,3.259,0,0,1-1.67-1.67c0-.417-.417-.417-.417-.835a1.293,1.293,0,0,0-.417-.835l-5.426.835c0,.835.417,1.252.417,1.67.417.417.417,1.252.835,1.67a7.587,7.587,0,0,0,4.592,4.174,10.944,10.944,0,0,0,6.261.835,8.729,8.729,0,0,0,5.426-2.922,7.348,7.348,0,0,0,2.5-5.426c0-1.67,0-2.922-.835-4.174a7.425,7.425,0,0,0-2.922-3.339,8.733,8.733,0,0,0-2.5-1.67c-.835-.417-1.67-.417-2.5-.835-.417,0-1.252-.417-1.67-.417s-.835-.417-1.252-.835-.835-.835-.835-1.252a1.533,1.533,0,0,1-.417-1.252,2.169,2.169,0,0,1,.835-1.67,3.165,3.165,0,0,1,1.67-.835,5.294,5.294,0,0,1,2.5.417,3.259,3.259,0,0,1,1.67,1.67Zm0,0-5.009,2.5,5.009-2.5ZM34.639,63.435h0Zm5.426,5.426v9.183h2.5a4.6,4.6,0,1,0,0-9.183h-2.5Zm0-5.426h2.5a10.07,10.07,0,0,1,7.1,2.922,11.841,11.841,0,0,1,2.922,7.1,10.07,10.07,0,0,1-2.922,7.1,9.776,9.776,0,0,1-7.1,2.922h-2.5V93.907H34.639V63.017h5.426Zm147.35,0h0Zm0,0V88.9h10.436v5.844H181.989V63.852h5.426Zm139.836-.417h0Zm0,0V80.967a15.651,15.651,0,0,0,.417,4.592,5.03,5.03,0,0,0,2.087,2.087,6.033,6.033,0,0,0,2.922.835,5.933,5.933,0,0,0,2.5-.835,5.03,5.03,0,0,0,2.087-2.087c.835-1.252.835-3.339.835-5.009V62.6h5.844V80.549c0,2.5,0,5.009-1.67,7.931a19.787,19.787,0,0,1-4.174,4.174,11.555,11.555,0,0,1-5.427,1.252,9.584,9.584,0,0,1-5.844-1.67,14.887,14.887,0,0,1-4.174-4.592,15.067,15.067,0,0,1-1.252-7.1V62.6h5.844ZM476.271,83.054a7.487,7.487,0,0,0,2.922-2.087c2.087-1.67,2.922-4.592,2.922-7.1a10.07,10.07,0,0,0-2.922-7.1c-1.67-2.087-4.592-2.922-7.1-2.922h-7.931V94.741h5.426V84.306h.835l6.261,10.436h6.679l-7.1-11.688Zm-7.1-14.192h2.5a4.6,4.6,0,1,1,0,9.183h-2.5Z" transform="translate(217.7 248.407)"/>
    <g id="Group" transform="translate(542.47 876.98)">
      <text id="I" class="cls-2" transform="translate(0 22)"><tspan x="0" y="0">I</tspan></text>
      <text id="f_it_is_not_good" data-name="f it is not good" class="cls-3" transform="translate(6.679 23)"><tspan x="0" y="0">f it is not good</tspan></text>
      <text id="d" class="cls-3" transform="translate(54.682 49.298)"><tspan x="0" y="0">d</tspan></text>
      <text id="on_t_do_it" data-name="on’t do it" class="cls-3" transform="translate(70.544 49.298)"><tspan x="0" y="0">on’t do it</tspan></text>
    </g>
  </g>
</svg>
